<svg id="Layer_1" data-name="Layer 1" xmlns="http://www.w3.org/2000/svg" viewBox="0 0 950 475"><defs><style>.cls-1{fill:#ccc;}.cls-2{fill:none;stroke:#b3b3b3;stroke-miterlimit:10;}.cls-3{fill:#b3b3b3;}.cls-4{font-size:12px;font-family:ArialMT, Arial;}</style></defs><rect class="cls-1" x="29.05" y="179.61" width="894.95" height="0.56"/><rect class="cls-1" x="28.24" y="215.66" width="895.76" height="0.56"/><rect class="cls-1" x="25" y="263.62" width="899" height="0.56"/><rect class="cls-1" x="25" y="295.24" width="899" height="0.44"/><rect class="cls-1" x="29.05" y="221.71" width="4.59" height="0.56"/><path class="cls-1" d="M905.64,222.27h-9.18v-.56h9.18Zm-22.94,0h-9.18v-.56h9.18Zm-23,0h-9.18v-.56h9.18Zm-23,0h-9.18v-.56h9.18Zm-22.95,0h-9.18v-.56h9.18Zm-22.94,0h-9.18v-.56h9.18Zm-22.95,0h-9.18v-.56H768Zm-23,0h-9.18v-.56H745Zm-23,0h-9.18v-.56h9.18Zm-22.94,0h-9.18v-.56h9.18Zm-23,0H667v-.56h9.18Zm-22.95,0H644v-.56h9.18Zm-23,0h-9.18v-.56h9.18Zm-22.95,0h-9.17v-.56h9.17Zm-22.94,0H575.2v-.56h9.18Zm-23,0h-9.18v-.56h9.18Zm-22.95,0H529.3v-.56h9.18Zm-23,0h-9.17v-.56h9.17Zm-22.94,0h-9.18v-.56h9.18Zm-22.95,0h-9.18v-.56h9.18Zm-22.95,0h-9.18v-.56h9.18Zm-22.95,0h-9.17v-.56h9.17Zm-22.94,0h-9.18v-.56h9.18Zm-22.95,0h-9.18v-.56h9.18Zm-23,0h-9.18v-.56h9.18Zm-22.95,0h-9.18v-.56H332Zm-22.94,0h-9.18v-.56H309Zm-22.95,0h-9.18v-.56h9.18Zm-22.95,0h-9.18v-.56h9.18Zm-23,0H231v-.56h9.17Zm-22.94,0H208v-.56h9.18Zm-22.95,0h-9.18v-.56h9.18Zm-23,0h-9.18v-.56h9.18Zm-22.95,0h-9.18v-.56h9.18Zm-22.94,0h-9.18v-.56h9.18Zm-23,0H93.3v-.56h9.18Zm-23,0H70.35v-.56h9.18Zm-23,0H47.4v-.56h9.18Z"/><rect class="cls-1" x="919.41" y="221.71" width="4.59" height="0.56"/><path class="cls-1" d="M29.67,227.49h1.2l1.5,4.28.06.23a.66.66,0,0,1,0,.13h0a.49.49,0,0,0,0-.13c0-.07,0-.15.07-.23l1.49-4.28h1.2v5.4h-.72V228h0l-.09.27-1.61,4.58h-.77l-1.61-4.58-.09-.27h0v4.85h-.69Z"/><path class="cls-1" d="M37.23,232.74a1.62,1.62,0,0,1-.62-.72,2.65,2.65,0,0,1-.21-1.09,2.39,2.39,0,0,1,.23-1.08,1.69,1.69,0,0,1,.65-.7,1.89,1.89,0,0,1,1.86,0,1.51,1.51,0,0,1,.6.67,2.38,2.38,0,0,1,.21,1v.2H37.12v.08a1.73,1.73,0,0,0,.14.71,1.12,1.12,0,0,0,.38.47,1,1,0,0,0,.58.16,1.19,1.19,0,0,0,.9-.39,1.24,1.24,0,0,0,.2-.31l.59.22a1.62,1.62,0,0,1-.24.38,1.84,1.84,0,0,1-.55.43,2.07,2.07,0,0,1-1.89-.06Zm2-2.19v-.05a1.23,1.23,0,0,0-.11-.55,1,1,0,0,0-.34-.4,1,1,0,0,0-.56-.15,1.1,1.1,0,0,0-.57.15,1,1,0,0,0-.37.41,1.56,1.56,0,0,0-.16.59Z"/><path class="cls-1" d="M41.31,232.84a1.16,1.16,0,0,1-.48-.45,1.2,1.2,0,0,1-.18-.65,1.14,1.14,0,0,1,.84-1.11,5.28,5.28,0,0,1,.92-.24,5.7,5.7,0,0,0,.74-.17v-.17a.57.57,0,0,0-.21-.49,1.08,1.08,0,0,0-.65-.16.86.86,0,0,0-.6.18.88.88,0,0,0-.27.47l-.6-.18c.16-.64.66-1,1.52-1a1.78,1.78,0,0,1,1,.2,1.1,1.1,0,0,1,.43.43,1.56,1.56,0,0,1,.11.62v2c0,.18.07.28.22.28l.12,0,.07,0h0l.1.42a.59.59,0,0,1-.2.1,1.25,1.25,0,0,1-.36.05.74.74,0,0,1-.33-.07.65.65,0,0,1-.2-.15.52.52,0,0,1-.13-.36h0a.77.77,0,0,1-.17.24,1.09,1.09,0,0,1-.37.25,1.34,1.34,0,0,1-.6.12A1.53,1.53,0,0,1,41.31,232.84Zm1.35-.49A.83.83,0,0,0,43,232a.92.92,0,0,0,.14-.5v-.85h0l-.63.16a4.25,4.25,0,0,0-.69.2.92.92,0,0,0-.31.24.63.63,0,0,0-.14.44.7.7,0,0,0,.22.53.8.8,0,0,0,.59.2A1,1,0,0,0,42.66,232.35Z"/><path class="cls-1" d="M45.25,229h.69v.63h0a1.18,1.18,0,0,1,.23-.31,1.5,1.5,0,0,1,1.1-.43,1.35,1.35,0,0,1,1,.37,1.49,1.49,0,0,1,.36,1.07v2.55h-.7V230.5a1.34,1.34,0,0,0-.19-.74.69.69,0,0,0-.66-.31,1.09,1.09,0,0,0-.61.17,1.12,1.12,0,0,0-.39.47,1.55,1.55,0,0,0-.14.65v2.15h-.7Z"/><path class="cls-1" d="M52.24,227.49H53v4.8h2.43l.11.6H52.24Z"/><path class="cls-1" d="M56.31,227.38H57v.89h-.7Zm0,1.63H57v3.88h-.7Z"/><path class="cls-1" d="M58.43,229h.69v.63h0a1.18,1.18,0,0,1,.23-.31,1.41,1.41,0,0,1,.44-.3,1.53,1.53,0,0,1,.66-.13,1.35,1.35,0,0,1,1,.37,1.49,1.49,0,0,1,.36,1.07v2.55h-.7V230.5a1.34,1.34,0,0,0-.19-.74.7.7,0,0,0-.67-.31,1.08,1.08,0,0,0-.6.17,1.12,1.12,0,0,0-.39.47,1.55,1.55,0,0,0-.14.65v2.15h-.7Z"/><path class="cls-1" d="M63.67,232.74a1.62,1.62,0,0,1-.62-.72,2.65,2.65,0,0,1-.21-1.09,2.39,2.39,0,0,1,.23-1.08,1.67,1.67,0,0,1,.64-.7,1.8,1.8,0,0,1,.95-.25,1.73,1.73,0,0,1,.92.24,1.51,1.51,0,0,1,.6.67,2.38,2.38,0,0,1,.21,1v.2H63.56v.08a1.73,1.73,0,0,0,.14.71,1.12,1.12,0,0,0,.38.47,1,1,0,0,0,.58.16,1.19,1.19,0,0,0,.9-.39,1.24,1.24,0,0,0,.2-.31l.59.22a1.62,1.62,0,0,1-.24.38,2,2,0,0,1-.55.43,1.87,1.87,0,0,1-.9.2A1.82,1.82,0,0,1,63.67,232.74Zm2-2.19v-.05a1.38,1.38,0,0,0-.11-.55,1,1,0,0,0-.34-.4,1,1,0,0,0-.56-.15,1.05,1.05,0,0,0-.57.15,1.07,1.07,0,0,0-.38.41,1.39,1.39,0,0,0-.15.59Z"/><path class="cls-1" d="M29.66,268.13h1.9a2.57,2.57,0,0,1,1.37.32,1.11,1.11,0,0,1,.51,1,.93.93,0,0,1-.36.83,1.65,1.65,0,0,1-.73.28v0a1.68,1.68,0,0,1,.64.16,1.39,1.39,0,0,1,.54.46,1.32,1.32,0,0,1,.21.77,1.49,1.49,0,0,1-.24.85,1.57,1.57,0,0,1-.68.53,2.59,2.59,0,0,1-1,.18H29.66Zm1.79,2.18a2.11,2.11,0,0,0,.93-.17.78.78,0,0,0,0-1.26,2.11,2.11,0,0,0-.93-.17H30.38v1.6Zm.11,2.64c1,0,1.44-.35,1.44-1a.87.87,0,0,0-.38-.79,2.11,2.11,0,0,0-1.06-.23H30.38V273Z"/><path class="cls-1" d="M35.18,273.48a1.2,1.2,0,0,1-.65-1.1,1.14,1.14,0,0,1,.84-1.11,5.28,5.28,0,0,1,.92-.24,6.16,6.16,0,0,0,.74-.17v-.17a.57.57,0,0,0-.21-.49,1,1,0,0,0-.65-.16.91.91,0,0,0-.6.17.89.89,0,0,0-.28.48l-.59-.18c.15-.64.66-1,1.52-1a1.89,1.89,0,0,1,1,.19,1.12,1.12,0,0,1,.43.44,1.53,1.53,0,0,1,.11.62v2c0,.19.07.29.22.29l.12,0,.07,0h0l.1.42a.54.54,0,0,1-.2.09,1,1,0,0,1-.36.05.75.75,0,0,1-.33-.06.69.69,0,0,1-.2-.15A.58.58,0,0,1,37,273h0a.85.85,0,0,1-.17.25,1.2,1.2,0,0,1-.37.25,1.34,1.34,0,0,1-.6.12A1.6,1.6,0,0,1,35.18,273.48Zm1.36-.49a.83.83,0,0,0,.49-.81v-.85h0l-.63.16a4.25,4.25,0,0,0-.69.2,1.08,1.08,0,0,0-.32.24.66.66,0,0,0-.13.44.67.67,0,0,0,.22.53.8.8,0,0,0,.59.2A1,1,0,0,0,36.54,273Z"/><path class="cls-1" d="M39.34,273.35a1.74,1.74,0,0,1-.66-.8l.59-.23a1.44,1.44,0,0,0,.44.58,1,1,0,0,0,.66.22.85.85,0,0,0,.59-.18.57.57,0,0,0,.21-.45.47.47,0,0,0-.19-.4,1.56,1.56,0,0,0-.59-.26l-.39-.11a2.15,2.15,0,0,1-.86-.41,1,1,0,0,1-.29-.72.94.94,0,0,1,.17-.54,1.21,1.21,0,0,1,.5-.38,1.81,1.81,0,0,1,.72-.13,1.94,1.94,0,0,1,.7.12,1.64,1.64,0,0,1,.51.32,1.17,1.17,0,0,1,.3.39l-.49.33a1.16,1.16,0,0,0-.41-.47,1.07,1.07,0,0,0-.61-.18.9.9,0,0,0-.53.14.44.44,0,0,0-.19.39.39.39,0,0,0,.08.25.48.48,0,0,0,.22.17,2.8,2.8,0,0,0,.39.14l.39.11a3.78,3.78,0,0,1,.63.24,1.16,1.16,0,0,1,.44.38.94.94,0,0,1,.18.59,1.05,1.05,0,0,1-.2.63,1.26,1.26,0,0,1-.54.41,2,2,0,0,1-.74.14A1.88,1.88,0,0,1,39.34,273.35Z"/><path class="cls-1" d="M43.37,273.38a1.62,1.62,0,0,1-.62-.72,2.67,2.67,0,0,1-.21-1.1,2.38,2.38,0,0,1,.23-1.07,1.67,1.67,0,0,1,.64-.7,1.8,1.8,0,0,1,1-.25,1.82,1.82,0,0,1,.92.23,1.59,1.59,0,0,1,.6.68,2.38,2.38,0,0,1,.21,1v.2H43.26v.08a1.73,1.73,0,0,0,.14.71,1.12,1.12,0,0,0,.38.47,1,1,0,0,0,.58.16,1.13,1.13,0,0,0,.54-.12,1.3,1.3,0,0,0,.36-.27,1.24,1.24,0,0,0,.2-.31l.59.22a1.62,1.62,0,0,1-.24.38,2,2,0,0,1-.55.43,1.87,1.87,0,0,1-.9.2A1.82,1.82,0,0,1,43.37,273.38Zm2-2.19v-.05a1.47,1.47,0,0,0-.11-.56.92.92,0,0,0-.34-.39,1,1,0,0,0-.56-.15,1.05,1.05,0,0,0-.57.15,1.07,1.07,0,0,0-.38.41,1.39,1.39,0,0,0-.15.59Z"/><path class="cls-1" d="M47.17,268h.7v5.51h-.7Z"/><path class="cls-1" d="M49.33,268H50v.89h-.71Zm0,1.63H50v3.88h-.71Z"/><path class="cls-1" d="M51.45,269.65h.69v.63h0a1.12,1.12,0,0,1,.22-.31,1.41,1.41,0,0,1,.45-.3,1.47,1.47,0,0,1,.66-.13,1.33,1.33,0,0,1,1,.37,1.49,1.49,0,0,1,.36,1.07v2.55h-.71v-2.39a1.42,1.42,0,0,0-.18-.74.71.71,0,0,0-.67-.31,1.09,1.09,0,0,0-.61.17,1.12,1.12,0,0,0-.39.47,1.54,1.54,0,0,0-.13.65v2.15h-.71Z"/><path class="cls-1" d="M56.69,273.38a1.54,1.54,0,0,1-.61-.72,2.67,2.67,0,0,1-.21-1.1,2.25,2.25,0,0,1,.23-1.07,1.61,1.61,0,0,1,.64-.7,1.92,1.92,0,0,1,1.86,0,1.59,1.59,0,0,1,.6.68,2.38,2.38,0,0,1,.21,1v.2H56.59v.08a1.73,1.73,0,0,0,.13.71,1.07,1.07,0,0,0,.39.47,1,1,0,0,0,.58.16,1.16,1.16,0,0,0,.54-.12,1.3,1.3,0,0,0,.36-.27,1.61,1.61,0,0,0,.2-.31l.59.22a2.19,2.19,0,0,1-.25.38,1.79,1.79,0,0,1-1.44.63A1.88,1.88,0,0,1,56.69,273.38Zm2-2.19v-.05a1.31,1.31,0,0,0-.12-.56.86.86,0,0,0-.34-.39,1,1,0,0,0-.55-.15,1.05,1.05,0,0,0-.57.15,1.07,1.07,0,0,0-.38.41,1.39,1.39,0,0,0-.15.59Z"/><path class="cls-1" d="M29.66,287.67h1.88A3,3,0,0,1,33,288a2.07,2.07,0,0,1,.91.94,3.45,3.45,0,0,1,0,2.86,2.07,2.07,0,0,1-.91.94,3,3,0,0,1-1.45.33H29.66Zm1.75,4.82a2,2,0,0,0,1.53-.54,2.66,2.66,0,0,0,0-3.16,2,2,0,0,0-1.53-.54h-1v4.24Z"/><path class="cls-1" d="M35.77,292.92a1.62,1.62,0,0,1-.62-.72,2.62,2.62,0,0,1-.21-1.09,2.42,2.42,0,0,1,.23-1.08,1.63,1.63,0,0,1,.65-.7,1.83,1.83,0,0,1,.94-.25,1.73,1.73,0,0,1,.92.24,1.56,1.56,0,0,1,.6.67,2.41,2.41,0,0,1,.21,1v.2H35.66v.08a1.73,1.73,0,0,0,.14.71,1.12,1.12,0,0,0,.38.47,1,1,0,0,0,.58.16,1.13,1.13,0,0,0,.54-.12,1,1,0,0,0,.36-.27,1.08,1.08,0,0,0,.2-.31l.59.22a1.62,1.62,0,0,1-.24.38,1.84,1.84,0,0,1-.55.43,1.87,1.87,0,0,1-.9.2A1.85,1.85,0,0,1,35.77,292.92Zm2-2.19v-.05a1.38,1.38,0,0,0-.11-.55,1,1,0,0,0-.34-.4,1,1,0,0,0-.56-.15,1,1,0,0,0-.94.56,1.56,1.56,0,0,0-.16.59Z"/><path class="cls-1" d="M39.73,292.89a1.69,1.69,0,0,1-.65-.79l.59-.24a1.46,1.46,0,0,0,.43.59,1.07,1.07,0,0,0,.67.21.89.89,0,0,0,.59-.18.53.53,0,0,0,.2-.45.48.48,0,0,0-.19-.4,1.73,1.73,0,0,0-.59-.26l-.39-.11a2,2,0,0,1-.85-.41.92.92,0,0,1-.3-.72.88.88,0,0,1,.18-.54,1.16,1.16,0,0,1,.49-.37,1.83,1.83,0,0,1,.73-.14,1.92,1.92,0,0,1,.69.12,1.59,1.59,0,0,1,.51.32,1.51,1.51,0,0,1,.31.39l-.5.33a1.16,1.16,0,0,0-.41-.47,1.06,1.06,0,0,0-.6-.18.94.94,0,0,0-.54.14.47.47,0,0,0-.19.39.45.45,0,0,0,.08.26.65.65,0,0,0,.22.17,2.94,2.94,0,0,0,.39.13l.4.11a3.78,3.78,0,0,1,.63.24,1.33,1.33,0,0,1,.44.38,1,1,0,0,1,.17.59,1,1,0,0,1-.2.63,1.29,1.29,0,0,1-.53.41,2,2,0,0,1-.74.14A1.89,1.89,0,0,1,39.73,292.89Z"/><path class="cls-1" d="M43.76,292.92a1.7,1.7,0,0,1-.62-.73,2.62,2.62,0,0,1-.21-1.07,2.38,2.38,0,0,1,.23-1.05,1.68,1.68,0,0,1,.65-.72,1.88,1.88,0,0,1,1-.26,1.71,1.71,0,0,1,.88.21,1.5,1.5,0,0,1,.51.49,1.2,1.2,0,0,1,.2.47l-.63.17a1,1,0,0,0-.12-.36,1.1,1.1,0,0,0-.33-.31,1.06,1.06,0,0,0-.53-.13,1.08,1.08,0,0,0-.6.17,1.13,1.13,0,0,0-.39.51,2,2,0,0,0-.14.81,2.24,2.24,0,0,0,.13.82,1.08,1.08,0,0,0,.39.51,1,1,0,0,0,.59.18,1,1,0,0,0,.54-.13.91.91,0,0,0,.34-.3,1.19,1.19,0,0,0,.16-.37l.64.16a1.51,1.51,0,0,1-.23.49,1.66,1.66,0,0,1-.55.49,1.8,1.8,0,0,1-.91.21A1.88,1.88,0,0,1,43.76,292.92Z"/><path class="cls-1" d="M47.93,292.92a1.62,1.62,0,0,1-.62-.72,2.62,2.62,0,0,1-.21-1.09,2.42,2.42,0,0,1,.23-1.08,1.69,1.69,0,0,1,.65-.7,1.83,1.83,0,0,1,.94-.25,1.73,1.73,0,0,1,.92.24,1.56,1.56,0,0,1,.6.67,2.41,2.41,0,0,1,.21,1v.2H47.83v.08A1.73,1.73,0,0,0,48,292a1.12,1.12,0,0,0,.38.47,1,1,0,0,0,.58.16,1.13,1.13,0,0,0,.54-.12,1,1,0,0,0,.36-.27A1.08,1.08,0,0,0,50,292l.59.22a1.62,1.62,0,0,1-.24.38,1.84,1.84,0,0,1-.55.43,2.07,2.07,0,0,1-1.89-.06Zm2-2.19v-.05a1.23,1.23,0,0,0-.11-.55,1,1,0,0,0-.34-.4,1,1,0,0,0-.56-.15,1.1,1.1,0,0,0-.57.15,1,1,0,0,0-.37.41,1.39,1.39,0,0,0-.15.59Z"/><path class="cls-1" d="M51.68,289.19h.69v.63h0a1.28,1.28,0,0,1,.22-.31,1.55,1.55,0,0,1,1.11-.43,1.33,1.33,0,0,1,1,.38,1.46,1.46,0,0,1,.36,1.07v2.54h-.71v-2.39a1.42,1.42,0,0,0-.18-.74.71.71,0,0,0-.67-.31,1.09,1.09,0,0,0-.61.17,1.12,1.12,0,0,0-.39.47,1.54,1.54,0,0,0-.13.65v2.15h-.71Z"/><path class="cls-1" d="M56.84,292.9a1.61,1.61,0,0,1-.54-.73,2.58,2.58,0,0,1-.19-1,2.8,2.8,0,0,1,.19-1,1.71,1.71,0,0,1,.58-.76,1.48,1.48,0,0,1,.91-.29,1.29,1.29,0,0,1,.68.16,1.11,1.11,0,0,1,.39.34.68.68,0,0,1,.12.22h0v-2.24h.71v5.51H59v-.59h0a.8.8,0,0,1-.15.21,1.39,1.39,0,0,1-.43.33,1.37,1.37,0,0,1-.7.16A1.38,1.38,0,0,1,56.84,292.9Zm1.67-.45a1.15,1.15,0,0,0,.37-.5,1.58,1.58,0,0,0,.12-.61V291a2,2,0,0,0-.11-.64,1,1,0,0,0-.35-.51.93.93,0,0,0-.61-.2.87.87,0,0,0-.62.22,1.29,1.29,0,0,0-.36.56,2.33,2.33,0,0,0-.12.76,2.21,2.21,0,0,0,.25,1.08.88.88,0,0,0,.8.43A1,1,0,0,0,58.51,292.45Z"/><path class="cls-1" d="M61.6,292.92a1.62,1.62,0,0,1-.62-.72,2.62,2.62,0,0,1-.21-1.09A2.42,2.42,0,0,1,61,290a1.69,1.69,0,0,1,.65-.7,1.83,1.83,0,0,1,.94-.25,1.73,1.73,0,0,1,.92.24,1.56,1.56,0,0,1,.6.67,2.41,2.41,0,0,1,.21,1v.2H61.5v.08a1.73,1.73,0,0,0,.13.71,1.12,1.12,0,0,0,.38.47,1,1,0,0,0,.58.16,1.13,1.13,0,0,0,.54-.12,1,1,0,0,0,.36-.27,1.08,1.08,0,0,0,.2-.31l.6.22a2.19,2.19,0,0,1-.25.38,1.84,1.84,0,0,1-.55.43,2.07,2.07,0,0,1-1.89-.06Zm2-2.19v-.05a1.23,1.23,0,0,0-.11-.55,1,1,0,0,0-.34-.4,1,1,0,0,0-.56-.15,1.1,1.1,0,0,0-.57.15,1,1,0,0,0-.37.41,1.39,1.39,0,0,0-.15.59Z"/><path class="cls-1" d="M65.35,289.19H66V290h0a1.17,1.17,0,0,1,.33-.61,1,1,0,0,1,.7-.25,1.2,1.2,0,0,1,.28,0,.56.56,0,0,1,.18.05l.08,0-.1.59h0l-.17-.06a.86.86,0,0,0-.28,0,.79.79,0,0,0-.32.06.64.64,0,0,0-.27.18,1.25,1.25,0,0,0-.29.45,1.87,1.87,0,0,0-.12.72v1.95h-.71Z"/><path class="cls-1" d="M70.67,287.56h.7v5.51h-.7Z"/><path class="cls-1" d="M72.84,287.56h.7v.89h-.7Zm0,1.63h.7v3.88h-.7Z"/><path class="cls-1" d="M75,289.19h.69v.63h0a1.28,1.28,0,0,1,.22-.31,1.6,1.6,0,0,1,.45-.3,1.69,1.69,0,0,1,.66-.13,1.33,1.33,0,0,1,1,.38,1.46,1.46,0,0,1,.36,1.07v2.54h-.71v-2.39a1.42,1.42,0,0,0-.18-.74.71.71,0,0,0-.67-.31,1.09,1.09,0,0,0-.61.17,1.12,1.12,0,0,0-.39.47,1.54,1.54,0,0,0-.13.65v2.15H75Z"/><path class="cls-1" d="M80.19,292.92a1.54,1.54,0,0,1-.61-.72,2.62,2.62,0,0,1-.21-1.09A2.29,2.29,0,0,1,79.6,290a1.61,1.61,0,0,1,.64-.7,1.87,1.87,0,0,1,1-.25,1.69,1.69,0,0,1,.91.24,1.56,1.56,0,0,1,.6.67,2.41,2.41,0,0,1,.21,1v.2H80.09v.08a1.73,1.73,0,0,0,.13.71,1.07,1.07,0,0,0,.39.47,1,1,0,0,0,.58.16,1.16,1.16,0,0,0,.54-.12,1,1,0,0,0,.36-.27,1.35,1.35,0,0,0,.2-.31l.59.22a2.19,2.19,0,0,1-.25.38,1.79,1.79,0,0,1-1.44.63A1.88,1.88,0,0,1,80.19,292.92Zm2-2.19v-.05a1.23,1.23,0,0,0-.12-.55.88.88,0,0,0-.34-.4,1,1,0,0,0-.55-.15,1.05,1.05,0,0,0-.57.15,1.07,1.07,0,0,0-.38.41,1.39,1.39,0,0,0-.15.59Z"/><path class="cls-1" d="M30.9,205.07l-1.74-2.56H30l1.12,1.69.18.29.11.18h0l.11-.18a3.31,3.31,0,0,1,.18-.29l1.11-1.69h.81l-1.74,2.56,1.89,2.84h-.84L31.68,206a3.23,3.23,0,0,1-.18-.28l-.11-.19h0s-.05.09-.1.19l-.18.28-1.27,1.92H29Z"/><path class="cls-1" d="M36.83,202.51h.72v2.16h2.91v-2.16h.72v5.4h-.72v-2.65H37.55v2.65h-.72Z"/><path class="cls-1" d="M43.12,207.76a1.62,1.62,0,0,1-.62-.72,2.67,2.67,0,0,1-.21-1.1,2.38,2.38,0,0,1,.23-1.07,1.69,1.69,0,0,1,.65-.7,1.75,1.75,0,0,1,.95-.25,1.78,1.78,0,0,1,.91.23,1.59,1.59,0,0,1,.6.68,2.38,2.38,0,0,1,.21,1v.2H43v.08a1.73,1.73,0,0,0,.13.71,1.18,1.18,0,0,0,.38.47,1.2,1.2,0,0,0,1.12,0,1.3,1.3,0,0,0,.36-.27,1.7,1.7,0,0,0,.21-.31l.59.22a2.19,2.19,0,0,1-.25.38,1.84,1.84,0,0,1-1.44.63A1.88,1.88,0,0,1,43.12,207.76Zm2-2.19v0A1.31,1.31,0,0,0,45,205a.92.92,0,0,0-.34-.39,1,1,0,0,0-.55-.15,1.05,1.05,0,0,0-.57.15,1,1,0,0,0-.38.41,1.39,1.39,0,0,0-.15.59Z"/><path class="cls-1" d="M46.91,202.4h.7v.89h-.7Zm0,1.63h.7v3.88h-.7Z"/><path class="cls-1" d="M49.28,209a1.53,1.53,0,0,1-.42-.69l.62-.19a1.28,1.28,0,0,0,.11.31.85.85,0,0,0,.3.3,1.23,1.23,0,0,0,.63.14,1,1,0,0,0,.81-.26.85.85,0,0,0,.22-.59v-.91h0a.68.68,0,0,1-.12.22,1.14,1.14,0,0,1-.4.33,1.42,1.42,0,0,1-.72.16,1.38,1.38,0,0,1-.84-.26,1.75,1.75,0,0,1-.54-.71,2.71,2.71,0,0,1-.18-1,2.32,2.32,0,0,1,.2-1,1.64,1.64,0,0,1,.57-.7,1.51,1.51,0,0,1,.87-.26,1.27,1.27,0,0,1,.68.16,1.15,1.15,0,0,1,.38.33.68.68,0,0,1,.12.22h0V204h.69v4a1.61,1.61,0,0,1-.14.64,1.15,1.15,0,0,1-.52.53,2,2,0,0,1-1.05.23A1.74,1.74,0,0,1,49.28,209Zm1.79-1.89a1.22,1.22,0,0,0,.36-.48,1.54,1.54,0,0,0,.12-.58v-.41a1.66,1.66,0,0,0-.11-.58,1,1,0,0,0-.34-.47.86.86,0,0,0-.58-.19.92.92,0,0,0-.81.39,2.31,2.31,0,0,0,0,2.11.83.83,0,0,0,.77.4A1,1,0,0,0,51.07,207.15Z"/><path class="cls-1" d="M53.68,202.4h.71v2.26h0a.94.94,0,0,1,.22-.31,1.31,1.31,0,0,1,.43-.3,1.53,1.53,0,0,1,.66-.13,1.33,1.33,0,0,1,1,.37,1.49,1.49,0,0,1,.36,1.07v2.55h-.71v-2.39a1.49,1.49,0,0,0-.18-.75.72.72,0,0,0-.67-.3,1,1,0,0,0-1,.64,1.51,1.51,0,0,0-.13.65v2.15h-.71Z"/><path class="cls-1" d="M59,207.78a1,1,0,0,1-.27-.77v-2.48H58V204h.75v-1.1l.69-.16h0V204h1v.5h-1V207c0,.18,0,.3.11.36a.49.49,0,0,0,.34.1l.21,0,.17,0,.08,0h0l.13.48-.12.06-.27.08a2.48,2.48,0,0,1-.41,0A1,1,0,0,1,59,207.78Z"/><path class="cls-1" d="M31,168.87h.89l2.05,5.4H33.1l-.53-1.47h-2.4l-.53,1.47H28.9Zm1.42,3.33-.85-2.32-.14-.41h0l-.14.41-.84,2.32Z"/><path class="cls-1" d="M34.81,174.1a1.8,1.8,0,0,1-.66-.8l.6-.24a1.32,1.32,0,0,0,.43.59,1,1,0,0,0,.66.22.9.9,0,0,0,.6-.18.59.59,0,0,0,.2-.45.47.47,0,0,0-.19-.4,1.56,1.56,0,0,0-.59-.26l-.39-.11a2.09,2.09,0,0,1-.86-.42.93.93,0,0,1-.29-.71.94.94,0,0,1,.17-.55,1.19,1.19,0,0,1,.5-.37,1.81,1.81,0,0,1,.72-.13,1.94,1.94,0,0,1,.7.12,1.83,1.83,0,0,1,.51.31,1.2,1.2,0,0,1,.3.4l-.49.33a1.16,1.16,0,0,0-.41-.47,1.07,1.07,0,0,0-.61-.18.9.9,0,0,0-.53.13.47.47,0,0,0-.19.39.42.42,0,0,0,.08.26.48.48,0,0,0,.22.17l.39.14.39.11a3.47,3.47,0,0,1,.63.24,1.24,1.24,0,0,1,.45.37,1,1,0,0,1,.17.6,1,1,0,0,1-.2.62,1.18,1.18,0,0,1-.54.41,1.78,1.78,0,0,1-.74.14A1.87,1.87,0,0,1,34.81,174.1Z"/><path class="cls-1" d="M38.84,174.12a1.65,1.65,0,0,1-.62-.73,2.54,2.54,0,0,1-.21-1.06,2.35,2.35,0,0,1,.23-1.05,1.75,1.75,0,0,1,.64-.73,1.93,1.93,0,0,1,1-.25,1.66,1.66,0,0,1,.88.21,1.43,1.43,0,0,1,.52.48,1.21,1.21,0,0,1,.19.47l-.62.18a.75.75,0,0,0-.13-.36.87.87,0,0,0-.32-.31,1,1,0,0,0-.54-.13,1,1,0,0,0-.59.17,1.1,1.1,0,0,0-.4.51,2.14,2.14,0,0,0-.14.81,2.21,2.21,0,0,0,.14.81,1.16,1.16,0,0,0,.38.52,1,1,0,0,0,.6.17,1.13,1.13,0,0,0,.54-.12.93.93,0,0,0,.34-.31,1.07,1.07,0,0,0,.15-.37l.64.16a1.22,1.22,0,0,1-.22.49,1.65,1.65,0,0,1-.55.49,1.84,1.84,0,0,1-.92.21A1.74,1.74,0,0,1,38.84,174.12Z"/><path class="cls-1" d="M43,174.13a1.56,1.56,0,0,1-.62-.72,2.67,2.67,0,0,1-.21-1.1,2.38,2.38,0,0,1,.23-1.07,1.7,1.7,0,0,1,.64-.71,1.86,1.86,0,0,1,1-.24,1.82,1.82,0,0,1,.92.23,1.46,1.46,0,0,1,.59.68,2.37,2.37,0,0,1,.21,1v.21H42.9v.08a1.76,1.76,0,0,0,.14.71,1,1,0,0,0,1,.63,1.13,1.13,0,0,0,.54-.12,1.3,1.3,0,0,0,.36-.27,1.24,1.24,0,0,0,.2-.31l.59.22a1.85,1.85,0,0,1-.24.38,1.93,1.93,0,0,1-.55.42,1.76,1.76,0,0,1-.9.2A1.82,1.82,0,0,1,43,174.13Zm2-2.19v-.05a1.43,1.43,0,0,0-.11-.56.91.91,0,0,0-.35-.4,1.15,1.15,0,0,0-1.12,0,1,1,0,0,0-.38.41,1.39,1.39,0,0,0-.15.59Z"/><path class="cls-1" d="M46.76,170.4h.69V171h0a1.34,1.34,0,0,1,.23-.3,1.22,1.22,0,0,1,.44-.3,1.53,1.53,0,0,1,.66-.13,1.31,1.31,0,0,1,1,.37,1.49,1.49,0,0,1,.36,1.07v2.54h-.7v-2.38a1.39,1.39,0,0,0-.19-.75.71.71,0,0,0-.66-.3A1,1,0,0,0,48,171a1.07,1.07,0,0,0-.39.47,1.5,1.5,0,0,0-.14.64v2.15h-.7Z"/><path class="cls-1" d="M51.92,174.11a1.77,1.77,0,0,1-.55-.73,2.8,2.8,0,0,1-.18-1,2.66,2.66,0,0,1,.19-1,1.76,1.76,0,0,1,.58-.76,1.44,1.44,0,0,1,.9-.28,1.41,1.41,0,0,1,.69.15,1.22,1.22,0,0,1,.39.34.68.68,0,0,1,.12.22h0v-2.24h.7v5.51h-.69v-.59h0s0,.1-.15.21a1.57,1.57,0,0,1-.43.34,1.48,1.48,0,0,1-.7.15A1.42,1.42,0,0,1,51.92,174.11Zm1.66-.46a1.15,1.15,0,0,0,.38-.49,1.62,1.62,0,0,0,.12-.61v-.4a2,2,0,0,0-.11-.64,1.2,1.2,0,0,0-.35-.51.93.93,0,0,0-.61-.19.91.91,0,0,0-.62.21,1.12,1.12,0,0,0-.36.57,2.27,2.27,0,0,0-.12.75,2.06,2.06,0,0,0,.25,1.08.85.85,0,0,0,.8.43A1,1,0,0,0,53.58,173.65Z"/><path class="cls-1" d="M56.68,174.13a1.56,1.56,0,0,1-.62-.72,2.67,2.67,0,0,1-.21-1.1,2.38,2.38,0,0,1,.23-1.07,1.7,1.7,0,0,1,.64-.71,1.89,1.89,0,0,1,1-.24,1.82,1.82,0,0,1,.92.23,1.53,1.53,0,0,1,.6.68,2.52,2.52,0,0,1,.2,1v.21H56.57v.08a1.76,1.76,0,0,0,.14.71,1,1,0,0,0,1,.63,1.13,1.13,0,0,0,.54-.12,1.3,1.3,0,0,0,.36-.27,1.24,1.24,0,0,0,.2-.31l.59.22a1.85,1.85,0,0,1-.24.38,1.8,1.8,0,0,1-.55.42,1.76,1.76,0,0,1-.9.2A1.82,1.82,0,0,1,56.68,174.13Zm2-2.19v-.05a1.43,1.43,0,0,0-.11-.56.91.91,0,0,0-.35-.4,1.15,1.15,0,0,0-1.12,0,1,1,0,0,0-.38.41,1.39,1.39,0,0,0-.15.59Z"/><path class="cls-1" d="M60.43,170.4h.69v.77h0a1.31,1.31,0,0,1,.33-.62,1,1,0,0,1,.71-.25,1.12,1.12,0,0,1,.27,0l.19.06.08,0-.11.59h0a.55.55,0,0,0-.18-.07,1.17,1.17,0,0,0-.27,0,.76.76,0,0,0-.32.06,1,1,0,0,0-.28.18,1.35,1.35,0,0,0-.29.46,1.87,1.87,0,0,0-.12.72v1.94h-.7Z"/><path class="cls-1" d="M65.75,168.76h.7v5.51h-.7Z"/><path class="cls-1" d="M67.91,168.76h.71v.9h-.71Zm0,1.64h.71v3.87h-.71Z"/><path class="cls-1" d="M70,170.4h.69V171h0a1.34,1.34,0,0,1,.23-.3,1.22,1.22,0,0,1,.44-.3,1.53,1.53,0,0,1,.66-.13,1.31,1.31,0,0,1,1,.37,1.45,1.45,0,0,1,.37,1.07v2.54h-.71v-2.38a1.49,1.49,0,0,0-.18-.75.73.73,0,0,0-.67-.3,1,1,0,0,0-.61.17,1.07,1.07,0,0,0-.39.47,1.5,1.5,0,0,0-.14.64v2.15H70Z"/><path class="cls-1" d="M75.27,174.13a1.62,1.62,0,0,1-.62-.72,2.67,2.67,0,0,1-.21-1.1,2.38,2.38,0,0,1,.23-1.07,1.72,1.72,0,0,1,.65-.71,2,2,0,0,1,1.86,0,1.53,1.53,0,0,1,.6.68,2.37,2.37,0,0,1,.21,1v.21H75.17v.08a1.76,1.76,0,0,0,.13.71,1.09,1.09,0,0,0,.38.46,1,1,0,0,0,.58.17,1.13,1.13,0,0,0,.54-.12,1.3,1.3,0,0,0,.36-.27,1.24,1.24,0,0,0,.2-.31l.6.22a2.65,2.65,0,0,1-.25.38,1.69,1.69,0,0,1-.55.42,1.76,1.76,0,0,1-.9.2A1.87,1.87,0,0,1,75.27,174.13Zm2-2.19v-.05a1.27,1.27,0,0,0-.11-.56,1,1,0,0,0-.34-.4,1.08,1.08,0,0,0-.56-.14,1.1,1.1,0,0,0-.57.15,1,1,0,0,0-.37.41,1.39,1.39,0,0,0-.15.59Z"/><path d="M543.32,250.65h-.1a3.52,3.52,0,0,0-3.48,1.81c-1,1.59-6.44,8.44-14.3,8.63-10.89.26-22.58-8.49-21-23.61h41.15c0-.05-.83-30.47-32.38-20.66a24.14,24.14,0,0,0-15.39,19s-5.87,28.31,27.87,26.46c0,0,11.53-.7,19.13-6.79C546.62,254.09,545.59,251,543.32,250.65Zm-27.6-33.19c10.65-3.6,20.46,1.95,24.94,17.57H504.38S506.64,220.53,515.72,217.46Z"/><path d="M642.34,222.67c-5.27-5.67-15.81-10.11-27.6-5.93-13.17,4.67-17.19,13-17.41,23a9.6,9.6,0,0,0,.14,1.93c.83,5.16,6.46,26.83,32,19.1C654.68,253.12,648.75,229.56,642.34,222.67ZM628.82,259.5c-4.18,1.61-21,2.19-23.43-17.26-.9-7.25-.26-12.61,1.58-16.23,2.76-5.42,6.37-8.33,12.41-9,13.32-1.5,21.1,9.64,21.49,21.92C641.28,251.88,633.93,257.54,628.82,259.5Z"/><path d="M561.22,262.75V203.5s-1.13-16.16,11.13-20.18c11.74-3.85,22.94,1.41,24,11.9l-8.76,2.6s-4.11-14.11-12.76-13.67a4.05,4.05,0,0,0-3.23,2,20.12,20.12,0,0,0-2.4,8.52c-.72,7.76,0,65.82,0,65.82Z"/><polygon points="555.12 216.25 549.44 219.11 592.92 219.11 595.1 216.46 555.12 216.25"/><path d="M662.62,262.43l8-2.11V227.24s4.3-7.3,10.17-9.14c11.63-3.63,18.89.65,18.89,44.33l8.11-2.11-.56-10.11c-.07-3.66-.37-14.62-.84-19.45-.81-8.36-7.94-20.45-26.48-13.88,0,0-9.09,4.45-9.41,5.41s0-7.17,0-7.17l-7.81,2.4Z"/><polygon points="721.54 217.43 716.28 220.08 759.77 220.08 761.95 217.43 721.54 217.43"/><path d="M729.42,191.32l9.24-3.28.2,47.6c.26,19.47,3.71,27.33,13,25.55,3-.57,2.92-3.53,5-7.17,4-7,11.13,5-4.34,8.3-15.82,3.36-23.11-6.81-23.11-17.31C729.44,235.75,729.42,191.32,729.42,191.32Z"/><path d="M780.58,217.75c-4.61,1.32-10.72,9.36-6.37,15.5,2.76,3.88,9.21,4.44,14.8,4.53,8.88.15,16,2.63,17.53,7.22,2.52,7.67-4.38,13.84-10.42,16.06s-24.81,2.55-27.15-5.92c-1.18-4.23,3.07-6,6-2.44,2.81,3.41,10.49,10.7,20.69,7.21,4.66-1.59,4.49-22.73-8.3-19.38-17.87,4.68-32.38-13.42-8-23.88a8.22,8.22,0,0,1,1.55-.49c3.13-.73,14.26-3,20.48,3,6.68,6.45-2.05,7.19-4.12,5.27C793.46,220.8,788.28,215.56,780.58,217.75Z"/><path d="M393.31,262.73l8.25-2.6V229s3.29-8.11,8.1-10.11c2.3-1,6.87-1.88,10.11,2.17,2.75,3.42,5.29,8.23,7.82,7.86,6.17-.9,1.52-10.66-5.17-12.72s-13.62-.22-20.69,6.23v-7.62l-8.42,1.76Z"/><path d="M367.6,254.92v7.73l8-2.13v-46l-8,2.34.18,28.57c-1,5-3.29,12.82-9.61,14.59-9.08,2.55-20.21-6.2-20.33-19.11-.15-16.42,0-26.13,0-26.13l-7.71,2.17.1,22.39c-.1,6.16.91,9.8,3.34,13.72C336.67,258.05,352.31,271,367.6,254.92Z"/><path d="M303.5,216.63c-15.12-6.3-27.35,6.67-27.35,6.67a25.59,25.59,0,0,0-5.75,18.35c.94,11.08,15.32,27.86,32.34,17.4C318.79,249.18,318.63,222.93,303.5,216.63Zm-7,43.63c-10.68,1.26-20.27-8-21.45-17.65-2.12-17.28,13.05-32.87,26.05-21C316.11,235.37,308.1,258.9,296.48,260.26Z"/><polygon points="267.33 183.2 275.03 179.77 275.03 260.02 267.33 262.91 267.33 183.2"/><path d="M69,220.52h38.43c2.34,0,4.48-2.61,6.12-2.61H72.4c-2.34,0-3.76,2.61-5.4,2.61Z"/><polygon points="107.43 183.82 115.38 180.4 115.38 260.64 107.43 263.54 107.43 183.82"/><polygon points="67 183.9 74.95 180.47 74.95 260.72 67 263.61 67 183.9"/><path d="M154,215c-18.77-.71-23.17,8.28-22.21,12.5.8,3.46,5.19.76,6.28-2s1.81-4.92,5.42-7,22.4-6.43,21.12,17.57c0,0-10.59-.62-16.7.36-8.05,1.29-22.62,4.38-19.52,17.69,2.59,11.16,22.33,9.06,28.8,6.72a46.12,46.12,0,0,0,7.39-3.26v5.26l8-2.93V234.13S175.31,215.79,154,215Zm1.86,44.71c-8.89,2.92-20.28.44-20.28-7.83,0-10.38,7.59-13.46,12.55-13.85a40.4,40.4,0,0,1,16.49,2.42l0,11.67S164.79,256.8,155.89,259.71Z"/><path d="M461.13,248.08c-3.72.64-24.74,4.72-20.65,11.16,2.07,3.26,8.87,2.32,12.06,2.3,6,0,13-.4,18.33,3.07,6.48,4.25,6.75,13.23,3.62,19.69-2.21,4.58-6.47,8.38-11.7,8.31A30,30,0,0,1,448.74,289c-6.52-3.78-7.33-11.23-3.87-17.6a21.17,21.17,0,0,1,7.61-7.69c.53-.33,1.08-.64,1.63-.94.22-.11,1.31-.69,1.84-.91a4.61,4.61,0,0,1,.74-.25c2.42-.52,5.45-1.71,7.18-2-9,1.7-20.39,4.89-25.89,12.65-4.14,5.84-4.7,14.21,1.58,18.65,4.26,3,10.3,4.25,15.46,4.35,5.37.11,11.18-2.07,16.12-4,5.45-2.15,10.1-5.61,12.1-11.3,3.28-9.35-.45-18.19-10.65-20.29-6.91-1.43-14.68.86-21.35-1.25-2.14-.67-3.93-2.21-3-4.65a5.53,5.53,0,0,1,2.05-2.08c.95-.67,4.14-1.59.45-.58a30.47,30.47,0,0,1,3.09-.68c2.47-.43,5.46-2,7.29-2.3Z"/><path d="M440.54,240.8c8.39,17,37.72,8.85,39.86-8.56,1.53-12.42-8.49-19.45-20-17.88-6.72.91-15.75,3.47-19,10-2.43,4.88-2.26,11.25-.84,16.43,0,.17,8.34.23,7.3-2.63-1.39-3.81-.63-8.32.18-12.3.75-3.72,2.51-7.44,5.87-9,5.26-2.47,9.95-.54,13,1.48,8.71,5.84,5.58,24.13-.37,28-2.61,1.72-6.13,1.88-9.83,1.15-6.24-1.23-8.29-6.95-8.81-9.34C447.69,237.49,440.57,240.87,440.54,240.8Z"/><path d="M477.46,220.29s6.56-6,14.29-5.68c5,.17,2.85,1.52.71,2.45a6.74,6.74,0,0,1-4.23.33c-1.05-.25-2.35-1-3.83-.32s-3.1,3.67-5.78,5C475.76,223.39,477.46,220.29,477.46,220.29Z"/><path d="M194.57,214.9l-7.06,3-.69,45.19,7.75-2.91s-.17-26.06,1.53-31.3,4.39-11.46,9.37-11.3,10.3,5.16,10.16,17.43,0,28.08,0,28.08l7.9-2.74s-.9-23.31,1.81-32c2.38-7.69,6.2-10.84,9.11-11,4.67-.24,9.83,3.82,10.21,16,.29,9.37-.08,29.8-.08,29.8l7.9-2.74c.11,1.86-.36-20.75-1.78-33.72-.72-6.51-6.81-11.78-13.74-11.78s-11.91,8-14,11.28c0,0-3.46-11.28-13.3-11.28s-15.1,10.8-15.1,10.8Z"/><polygon points="816.46 217.06 824.41 215.09 824.41 261.24 816.46 262.9 816.46 217.06"/><ellipse cx="820.43" cy="203.48" rx="3.97" ry="4.2"/><polygon points="837.63 218.72 843.96 214.85 861.55 251.56 876.63 218.96 883 214.85 863.81 257.46 859.6 262.04 837.63 218.72"/><line class="cls-2" x1="290.6" y1="239.68" x2="306" y2="283"/><path class="cls-3" d="M288.86,240.4a1.88,1.88,0,1,1,2.4,1.14A1.87,1.87,0,0,1,288.86,240.4Z"/><polyline class="cls-2" points="446.6 257.68 462 301 504.38 301"/><path class="cls-3" d="M444.86,258.4a1.88,1.88,0,1,1,2.4,1.14A1.87,1.87,0,0,1,444.86,258.4Z"/><line class="cls-2" x1="463.79" y1="282.5" x2="518.5" y2="282.5"/><circle class="cls-3" cx="463.88" cy="282.5" r="1.88"/><line class="cls-2" x1="331.5" y1="282.5" x2="305.5" y2="282.5"/><line class="cls-2" x1="861.88" y1="255.25" x2="868.5" y2="286"/><path class="cls-3" d="M860.06,255.73a1.88,1.88,0,1,1,2.23,1.45A1.88,1.88,0,0,1,860.06,255.73Z"/><line class="cls-2" x1="904.5" y1="285.5" x2="868" y2="285.5"/><text class="cls-4" transform="translate(307.31 278.91)">bowl</text><line class="cls-2" x1="90.9" y1="220.24" x2="105.5" y2="283"/><path class="cls-3" d="M89.09,220.76a1.88,1.88,0,1,1,2.26,1.4A1.89,1.89,0,0,1,89.09,220.76Z"/><polyline class="cls-2" points="71.76 189.24 95.5 165.5 132 165.5"/><path class="cls-3" d="M73.16,190.5a1.88,1.88,0,1,1,0-2.66A1.89,1.89,0,0,1,73.16,190.5Z"/><polyline class="cls-2" points="136.09 220.81 148.5 185.5 220 185.5"/><path class="cls-3" d="M137.9,221.35a1.88,1.88,0,1,1-1.15-2.4A1.89,1.89,0,0,1,137.9,221.35Z"/><polyline class="cls-2" points="491.2 214.86 496.5 202.5 517 202.5"/><path class="cls-3" d="M493,215.51a1.88,1.88,0,1,1-1-2.47A1.88,1.88,0,0,1,493,215.51Z"/><line class="cls-2" x1="157" y1="282.5" x2="105" y2="282.5"/><text class="cls-4" transform="translate(110 279.91)">crossbar</text><text class="cls-4" transform="translate(154 181.91)">ball terminal</text><text class="cls-4" transform="translate(107.22 162.42)">stem</text><text class="cls-4" transform="translate(494.31 278.91)">loop</text><text class="cls-4" transform="translate(713.31 173.91)">shoulder</text><text class="cls-4" transform="translate(584.31 279.91)">crossbar</text><text class="cls-4" transform="translate(794.31 160.91)">spine</text><text class="cls-4" transform="translate(485.31 297.91)">link</text><text class="cls-4" transform="translate(501.31 200.91)">ear</text><polyline class="cls-2" points="820.2 201.86 825.5 189.5 854 189.5"/><path class="cls-3" d="M822,202.51a1.88,1.88,0,1,1-1-2.47A1.88,1.88,0,0,1,822,202.51Z"/><text class="cls-4" transform="translate(831.31 186.91)">tittle</text><polyline class="cls-2" points="520.17 224.84 532.5 194.5 557 194.5"/><path class="cls-3" d="M522,225.47a1.88,1.88,0,1,1-1-2.45A1.88,1.88,0,0,1,522,225.47Z"/><polyline class="cls-2" points="693.08 215.81 706.5 176.5 761 176.5"/><path class="cls-3" d="M694.89,216.33a1.88,1.88,0,1,1-1.18-2.39A1.88,1.88,0,0,1,694.89,216.33Z"/><text class="cls-4" transform="translate(597.31 164.91)">ascender</text><polyline class="cls-2" points="582.07 184.81 587.5 168.5 647 168.5"/><path class="cls-3" d="M583.88,185.31a1.88,1.88,0,1,1-1.19-2.38A1.88,1.88,0,0,1,583.88,185.31Z"/><polyline class="cls-2" points="770.87 233.75 785.5 164.5 822 164.5"/><path class="cls-3" d="M772.73,234.05a1.89,1.89,0,0,1-2.23,1.45,1.88,1.88,0,1,1,.78-3.68A1.89,1.89,0,0,1,772.73,234.05Z"/><text class="cls-4" transform="translate(536.31 190.91)">eye</text><text class="cls-4" transform="translate(871.31 281.91)">vertex</text><text class="cls-4" transform="translate(840.31 302.91)">spur</text><polyline class="cls-2" points="757.19 258.52 766.5 285.5 813 285.5"/><path class="cls-3" d="M755.44,259.22a1.88,1.88,0,1,1,2.39,1.17A1.88,1.88,0,0,1,755.44,259.22Z"/><polyline class="cls-2" points="622.24 239.13 652.5 305.5 747 305.5"/><path class="cls-3" d="M620.57,240a1.88,1.88,0,1,1,2.49.93A1.89,1.89,0,0,1,620.57,240Z"/><polyline class="cls-2" points="800.23 222.51 831.5 306.5 864 306.5"/><path class="cls-3" d="M798.5,223.25a1.88,1.88,0,1,1,2.42,1.11A1.88,1.88,0,0,1,798.5,223.25Z"/><polyline class="cls-2" points="565.87 218.25 579.5 282.5 631 282.5"/><path class="cls-3" d="M564.05,218.73a1.88,1.88,0,1,1,2.23,1.45A1.88,1.88,0,0,1,564.05,218.73Z"/><text class="cls-4" transform="translate(770.92 282.74)">terminal</text><text class="cls-4" transform="translate(657.92 301.74)">counter (closed)</text></svg>