<svg id="Layer_1" data-name="Layer 1" xmlns="http://www.w3.org/2000/svg" viewBox="0 0 950 475"><path d="M542.32,250.65h-.1a3.52,3.52,0,0,0-3.48,1.81c-1,1.59-6.44,8.44-14.3,8.63-10.89.26-22.58-8.49-21-23.61h41.15c0-.05-.83-30.47-32.38-20.66a24.14,24.14,0,0,0-15.39,19s-5.87,28.31,27.87,26.46c0,0,11.53-.7,19.13-6.79C545.62,254.09,544.59,251,542.32,250.65Zm-27.6-33.19c10.65-3.6,20.46,1.95,24.94,17.57H503.38S505.64,220.53,514.72,217.46Z"/><path d="M641.34,222.67c-5.27-5.67-15.81-10.11-27.6-5.93-13.17,4.67-17.19,13-17.41,23a9.6,9.6,0,0,0,.14,1.93c.83,5.16,6.46,26.83,32,19.1C653.68,253.12,647.75,229.56,641.34,222.67ZM627.82,259.5c-4.18,1.61-21,2.19-23.43-17.26-.9-7.25-.26-12.61,1.58-16.23,2.76-5.42,6.37-8.33,12.41-9,13.32-1.5,21.1,9.64,21.49,21.92C640.28,251.88,632.93,257.54,627.82,259.5Z"/><path d="M560.22,262.75V203.5s-1.13-16.16,11.13-20.18c11.74-3.85,22.94,1.41,24,11.9l-8.76,2.6s-4.11-14.11-12.76-13.67a4.05,4.05,0,0,0-3.23,2,20.12,20.12,0,0,0-2.4,8.52c-.72,7.76,0,65.82,0,65.82Z"/><polygon points="554.12 216.25 548.44 219.11 591.92 219.11 594.1 216.46 554.12 216.25"/><path d="M661.62,262.43l8-2.11V227.24s4.3-7.3,10.17-9.14c11.63-3.63,18.89.65,18.89,44.33l8.11-2.11-.56-10.11c-.07-3.66-.37-14.62-.84-19.45-.81-8.36-7.94-20.45-26.48-13.88,0,0-9.09,4.45-9.41,5.41s0-7.17,0-7.17l-7.81,2.4Z"/><polygon points="720.54 217.43 715.28 220.08 758.77 220.08 760.95 217.43 720.54 217.43"/><path d="M728.42,184.32l9.24-3.28.2,54.6c.26,19.47,3.71,27.33,13,25.55,3-.57,2.92-3.53,5-7.17,4-7,11.13,5-4.34,8.3-15.82,3.36-23.11-6.81-23.11-17.31C728.44,235.75,728.42,184.32,728.42,184.32Z"/><path d="M779.58,217.75c-4.61,1.32-10.72,9.36-6.37,15.5,2.76,3.88,9.21,4.44,14.8,4.53,8.88.15,16,2.63,17.53,7.22,2.52,7.67-4.38,13.84-10.42,16.06s-24.81,2.55-27.15-5.92c-1.18-4.23,3.07-6,6-2.44,2.81,3.41,10.49,10.7,20.69,7.21,4.66-1.59,4.49-22.73-8.3-19.38-17.87,4.68-32.38-13.42-8-23.88a8.22,8.22,0,0,1,1.55-.49c3.13-.73,14.26-3,20.48,3,6.68,6.45-2.05,7.19-4.12,5.27C792.46,220.8,787.28,215.56,779.58,217.75Z"/><path d="M392.31,262.73l8.25-2.6V229s3.29-8.11,8.1-10.11c2.3-1,6.87-1.88,10.11,2.17,2.75,3.42,5.29,8.23,7.82,7.86,6.17-.9,1.52-10.66-5.17-12.72s-13.62-.22-20.69,6.23v-7.62l-8.42,1.76Z"/><path d="M366.6,254.92v7.73l8-2.13v-46l-8,2.34.18,28.57c-1,5-3.29,12.82-9.61,14.59-9.08,2.55-20.21-6.2-20.33-19.11-.15-16.42,0-26.13,0-26.13l-7.71,2.17.1,22.39c-.1,6.16.91,9.8,3.34,13.72C335.67,258.05,351.31,271,366.6,254.92Z"/><path d="M302.5,216.63c-15.12-6.3-27.35,6.67-27.35,6.67a25.59,25.59,0,0,0-5.75,18.35c.94,11.08,15.32,27.86,32.34,17.4C317.79,249.18,317.63,222.93,302.5,216.63Zm-7,43.63c-10.68,1.26-20.27-8-21.45-17.65-2.12-17.28,13.05-32.87,26.05-21C315.11,235.37,307.1,258.9,295.48,260.26Z"/><polygon points="266.33 183.2 274.03 179.77 274.03 260.02 266.33 262.91 266.33 183.2"/><path d="M68,220.52h38.43c2.34,0,4.48-2.61,6.12-2.61H71.4c-2.34,0-3.76,2.61-5.4,2.61Z"/><polygon points="106.43 183.82 114.38 180.4 114.38 260.64 106.43 263.54 106.43 183.82"/><polygon points="66 183.9 73.95 180.47 73.95 260.72 66 263.61 66 183.9"/><path d="M153,215c-18.77-.71-23.17,8.28-22.21,12.5.8,3.46,5.19.76,6.28-2s1.81-4.92,5.42-7,22.4-6.43,21.12,17.57c0,0-10.59-.62-16.7.36-8.05,1.29-22.62,4.38-19.52,17.69,2.59,11.16,22.33,9.06,28.8,6.72a46.12,46.12,0,0,0,7.39-3.26v5.26l8-2.93V234.13S174.31,215.79,153,215Zm1.86,44.71c-8.89,2.92-20.28.44-20.28-7.83,0-10.38,7.59-13.46,12.55-13.85a40.4,40.4,0,0,1,16.49,2.42l0,11.67S163.79,256.8,154.89,259.71Z"/><path d="M460.13,248.08c-3.72.64-24.74,4.72-20.65,11.16,2.07,3.26,8.87,2.32,12.06,2.3,6,0,13-.4,18.33,3.07,6.48,4.25,6.75,13.23,3.62,19.69-2.21,4.58-6.47,8.38-11.7,8.31A30,30,0,0,1,447.74,289c-6.52-3.78-7.33-11.23-3.87-17.6a21.17,21.17,0,0,1,7.61-7.69c.53-.33,1.08-.64,1.63-.94.22-.11,1.31-.69,1.84-.91a4.61,4.61,0,0,1,.74-.25c2.42-.52,5.45-1.71,7.18-2-9,1.7-20.39,4.89-25.89,12.65-4.14,5.84-4.7,14.21,1.58,18.65,4.26,3,10.3,4.25,15.46,4.35,5.37.11,11.18-2.07,16.12-4,5.45-2.15,10.1-5.61,12.1-11.3,3.28-9.35-.45-18.19-10.65-20.29-6.91-1.43-14.68.86-21.35-1.25-2.14-.67-3.93-2.21-3-4.65a5.53,5.53,0,0,1,2.05-2.08c.95-.67,4.14-1.59.45-.58a30.47,30.47,0,0,1,3.09-.68c2.47-.43,5.46-2,7.29-2.3Z"/><path d="M439.54,240.8c8.39,17,37.72,8.85,39.86-8.56,1.53-12.42-8.49-19.45-20-17.88-6.72.91-15.75,3.47-19,10-2.43,4.88-2.26,11.25-.84,16.43,0,.17,8.34.23,7.3-2.63-1.39-3.81-.63-8.32.18-12.3.75-3.72,2.51-7.44,5.87-9,5.26-2.47,9.95-.54,13,1.48,8.71,5.84,5.58,24.13-.37,28-2.61,1.72-6.13,1.88-9.83,1.15-6.24-1.23-8.29-6.95-8.81-9.34C446.69,237.49,439.57,240.87,439.54,240.8Z"/><path d="M476.46,220.29s6.56-6,14.29-5.68c5,.17,2.85,1.52.71,2.45a6.74,6.74,0,0,1-4.23.33c-1.05-.25-2.35-1-3.83-.32s-3.1,3.67-5.78,5C474.76,223.39,476.46,220.29,476.46,220.29Z"/><path d="M193.57,214.9l-7.06,3-.69,45.19,7.75-2.91s-.17-26.06,1.53-31.3,4.39-11.46,9.37-11.3,10.3,5.16,10.16,17.43,0,28.08,0,28.08l7.9-2.74s-.9-23.31,1.81-32c2.38-7.69,6.2-10.84,9.11-11,4.67-.24,9.83,3.82,10.21,16,.29,9.37-.08,29.8-.08,29.8l7.9-2.74c.11,1.86-.36-20.75-1.78-33.72-.72-6.51-6.81-11.78-13.74-11.78s-11.91,8-14,11.28c0,0-3.46-11.28-13.3-11.28s-15.1,10.8-15.1,10.8Z"/><polygon points="815.46 217.06 823.41 215.09 823.41 261.24 815.46 262.9 815.46 217.06"/><ellipse cx="819.43" cy="203.48" rx="3.97" ry="4.2"/><polygon points="836.63 218.72 842.96 214.85 860.55 251.56 875.63 218.96 884 214.85 864.81 257.46 858.6 262.04 836.63 218.72"/></svg>